{
	"asset":{
		"generator":"Khronos glTF Blender I/O v4.1.63",
		"version":"2.0"
	},
	"extensionsUsed":[
		"KHR_materials_specular",
		"KHR_materials_ior"
	],
	"scene":0,
	"scenes":[
		{
			"name":"Scene",
			"nodes":[
				0
			]
		}
	],
	"nodes":[
		{
			"mesh":0,
			"name":"money",
			"rotation":[
				0,
				-0.7071068286895752,
				0,
				0.7071067094802856
			]
		}
	],
	"materials":[
		{
			"doubleSided":true,
			"extensions":{
				"KHR_materials_specular":{
					"specularFactor":0.29663610458374023
				}
			},
			"name":"helles Fell",
			"pbrMetallicRoughness":{
				"baseColorFactor":[
					0.02474619448184967,
					0.02474619448184967,
					0.02474619448184967,
					1
				],
				"metallicFactor":0
			}
		},
		{
			"doubleSided":true,
			"extensions":{
				"KHR_materials_specular":{
					"specularFactor":0
				}
			},
			"name":"dunkles Fell",
			"pbrMetallicRoughness":{
				"baseColorFactor":[
					0.014653204008936882,
					0.014653204008936882,
					0.014653204008936882,
					1
				],
				"metallicFactor":0,
				"roughnessFactor":0.9801223278045654
			}
		},
		{
			"doubleSided":true,
			"extensions":{
				"KHR_materials_specular":{
					"specularFactor":0
				},
				"KHR_materials_ior":{
					"ior":1.4500000476837158
				}
			},
			"name":"Augen",
			"pbrMetallicRoughness":{
				"baseColorFactor":[
					0.800000011920929,
					0.800000011920929,
					0.800000011920929,
					1
				],
				"metallicFactor":0
			}
		},
		{
			"doubleSided":true,
			"extensions":{
				"KHR_materials_specular":{
					"specularFactor":0
				}
			},
			"name":"Pupille",
			"pbrMetallicRoughness":{
				"baseColorFactor":[
					0,
					0,
					0,
					1
				],
				"metallicFactor":0
			}
		},
		{
			"doubleSided":true,
			"extensions":{
				"KHR_materials_specular":{
					"specularFactor":0
				}
			},
			"name":"Schnauze",
			"pbrMetallicRoughness":{
				"baseColorFactor":[
					0.05555563047528267,
					0.05555563047528267,
					0.05555563047528267,
					1
				],
				"metallicFactor":0
			}
		},
		{
			"doubleSided":true,
			"extensions":{
				"KHR_materials_specular":{
					"specularFactor":0.30886852741241455
				}
			},
			"name":"nose",
			"pbrMetallicRoughness":{
				"baseColorFactor":[
					0,
					0,
					0,
					1
				],
				"metallicFactor":0,
				"roughnessFactor":0.7568807601928711
			}
		}
	],
	"meshes":[
		{
			"name":"Cube.002",
			"primitives":[
				{
					"attributes":{
						"POSITION":0,
						"NORMAL":1,
						"TEXCOORD_0":2
					},
					"indices":3,
					"material":0
				},
				{
					"attributes":{
						"POSITION":4,
						"NORMAL":5,
						"TEXCOORD_0":6
					},
					"indices":7,
					"material":1
				},
				{
					"attributes":{
						"POSITION":8,
						"NORMAL":9,
						"TEXCOORD_0":10
					},
					"indices":11,
					"material":2
				},
				{
					"attributes":{
						"POSITION":12,
						"NORMAL":13,
						"TEXCOORD_0":14
					},
					"indices":15,
					"material":3
				},
				{
					"attributes":{
						"POSITION":16,
						"NORMAL":17,
						"TEXCOORD_0":18
					},
					"indices":19,
					"material":4
				},
				{
					"attributes":{
						"POSITION":20,
						"NORMAL":21,
						"TEXCOORD_0":22
					},
					"indices":23,
					"material":5
				}
			]
		}
	],
	"accessors":[
		{
			"bufferView":0,
			"componentType":5126,
			"count":467,
			"max":[
				1.0739781856536865,
				2.446838855743408,
				0.5890191793441772
			],
			"min":[
				-1.531041145324707,
				-0.00913703441619873,
				-0.5890191793441772
			],
			"type":"VEC3"
		},
		{
			"bufferView":1,
			"componentType":5126,
			"count":467,
			"type":"VEC3"
		},
		{
			"bufferView":2,
			"componentType":5126,
			"count":467,
			"type":"VEC2"
		},
		{
			"bufferView":3,
			"componentType":5123,
			"count":2124,
			"type":"SCALAR"
		},
		{
			"bufferView":4,
			"componentType":5126,
			"count":81,
			"max":[
				0.9598307609558105,
				2.3544061183929443,
				0.5791241526603699
			],
			"min":[
				-1.3339751958847046,
				1.851053237915039,
				-0.5791241526603699
			],
			"type":"VEC3"
		},
		{
			"bufferView":5,
			"componentType":5126,
			"count":81,
			"type":"VEC3"
		},
		{
			"bufferView":6,
			"componentType":5126,
			"count":81,
			"type":"VEC2"
		},
		{
			"bufferView":7,
			"componentType":5123,
			"count":420,
			"type":"SCALAR"
		},
		{
			"bufferView":8,
			"componentType":5126,
			"count":68,
			"max":[
				-1.3788686990737915,
				2.1808998584747314,
				0.38514408469200134
			],
			"min":[
				-1.5319666862487793,
				1.9167497158050537,
				-0.38514408469200134
			],
			"type":"VEC3"
		},
		{
			"bufferView":9,
			"componentType":5126,
			"count":68,
			"type":"VEC3"
		},
		{
			"bufferView":10,
			"componentType":5126,
			"count":68,
			"type":"VEC2"
		},
		{
			"bufferView":11,
			"componentType":5123,
			"count":168,
			"type":"SCALAR"
		},
		{
			"bufferView":12,
			"componentType":5126,
			"count":32,
			"max":[
				-1.4913465976715088,
				2.1044507026672363,
				0.30309706926345825
			],
			"min":[
				-1.531315565109253,
				2.0020816326141357,
				-0.30309706926345825
			],
			"type":"VEC3"
		},
		{
			"bufferView":13,
			"componentType":5126,
			"count":32,
			"type":"VEC3"
		},
		{
			"bufferView":14,
			"componentType":5126,
			"count":32,
			"type":"VEC2"
		},
		{
			"bufferView":15,
			"componentType":5123,
			"count":168,
			"type":"SCALAR"
		},
		{
			"bufferView":16,
			"componentType":5126,
			"count":105,
			"max":[
				-1.3713988065719604,
				2.028714895248413,
				0.3522840440273285
			],
			"min":[
				-1.5826680660247803,
				1.5974164009094238,
				-0.3522840440273285
			],
			"type":"VEC3"
		},
		{
			"bufferView":17,
			"componentType":5126,
			"count":105,
			"type":"VEC3"
		},
		{
			"bufferView":18,
			"componentType":5126,
			"count":105,
			"type":"VEC2"
		},
		{
			"bufferView":19,
			"componentType":5123,
			"count":408,
			"type":"SCALAR"
		},
		{
			"bufferView":20,
			"componentType":5126,
			"count":33,
			"max":[
				-1.5632176399230957,
				2.030471086502075,
				0.1069839596748352
			],
			"min":[
				-1.6223773956298828,
				1.925837516784668,
				-0.1069839596748352
			],
			"type":"VEC3"
		},
		{
			"bufferView":21,
			"componentType":5126,
			"count":33,
			"type":"VEC3"
		},
		{
			"bufferView":22,
			"componentType":5126,
			"count":33,
			"type":"VEC2"
		},
		{
			"bufferView":23,
			"componentType":5123,
			"count":96,
			"type":"SCALAR"
		}
	],
	"bufferViews":[
		{
			"buffer":0,
			"byteLength":5604,
			"byteOffset":0,
			"target":34962
		},
		{
			"buffer":0,
			"byteLength":5604,
			"byteOffset":5604,
			"target":34962
		},
		{
			"buffer":0,
			"byteLength":3736,
			"byteOffset":11208,
			"target":34962
		},
		{
			"buffer":0,
			"byteLength":4248,
			"byteOffset":14944,
			"target":34963
		},
		{
			"buffer":0,
			"byteLength":972,
			"byteOffset":19192,
			"target":34962
		},
		{
			"buffer":0,
			"byteLength":972,
			"byteOffset":20164,
			"target":34962
		},
		{
			"buffer":0,
			"byteLength":648,
			"byteOffset":21136,
			"target":34962
		},
		{
			"buffer":0,
			"byteLength":840,
			"byteOffset":21784,
			"target":34963
		},
		{
			"buffer":0,
			"byteLength":816,
			"byteOffset":22624,
			"target":34962
		},
		{
			"buffer":0,
			"byteLength":816,
			"byteOffset":23440,
			"target":34962
		},
		{
			"buffer":0,
			"byteLength":544,
			"byteOffset":24256,
			"target":34962
		},
		{
			"buffer":0,
			"byteLength":336,
			"byteOffset":24800,
			"target":34963
		},
		{
			"buffer":0,
			"byteLength":384,
			"byteOffset":25136,
			"target":34962
		},
		{
			"buffer":0,
			"byteLength":384,
			"byteOffset":25520,
			"target":34962
		},
		{
			"buffer":0,
			"byteLength":256,
			"byteOffset":25904,
			"target":34962
		},
		{
			"buffer":0,
			"byteLength":336,
			"byteOffset":26160,
			"target":34963
		},
		{
			"buffer":0,
			"byteLength":1260,
			"byteOffset":26496,
			"target":34962
		},
		{
			"buffer":0,
			"byteLength":1260,
			"byteOffset":27756,
			"target":34962
		},
		{
			"buffer":0,
			"byteLength":840,
			"byteOffset":29016,
			"target":34962
		},
		{
			"buffer":0,
			"byteLength":816,
			"byteOffset":29856,
			"target":34963
		},
		{
			"buffer":0,
			"byteLength":396,
			"byteOffset":30672,
			"target":34962
		},
		{
			"buffer":0,
			"byteLength":396,
			"byteOffset":31068,
			"target":34962
		},
		{
			"buffer":0,
			"byteLength":264,
			"byteOffset":31464,
			"target":34962
		},
		{
			"buffer":0,
			"byteLength":192,
			"byteOffset":31728,
			"target":34963
		}
	],
	"buffers":[
		{
			"byteLength":31920,
			"uri":"Manni.bin"
		}
	]
}
